<svg data-v-fde0c5aa="" xmlns="http://www.w3.org/2000/svg" viewBox="0 0 300 300" class="font"><!----><defs data-v-fde0c5aa=""><!----></defs><rect data-v-fde0c5aa="" fill="transparent" x="0" y="0" width="100px" height="100px" class="logo-background-square"></rect><defs data-v-fde0c5aa=""><linearGradient data-v-fde0c5aa="" gradientTransform="rotate(25)" id="cea00f28-8c78-4cf1-956e-f0434ac6f8a9" x1="0%" y1="0%" x2="100%" y2="0%"><stop data-v-fde0c5aa="" offset="0%" stop-color="#41E296" stop-opacity="1"></stop><stop data-v-fde0c5aa="" offset="100%" stop-color="#00C4EE" stop-opacity="1"></stop></linearGradient></defs><g data-v-fde0c5aa="" id="a9805d40-67d8-4999-9d74-57f614a196be" fill="url(#cea00f28-8c78-4cf1-956e-f0434ac6f8a9)" transform="matrix(4.063539018843506,0,0,4.063539018843506,38.98411524528911,104.83376473562471)"><path d="M3.84 5.91C1.85 5.91 0.56 6.83 0.56 8.32C0.56 9.59 1.41 10.25 2.84 10.58C4.17 10.89 4.65 11.16 4.65 11.63C4.65 12.03 4.30 12.21 3.85 12.21C3.32 12.21 2.87 11.83 2.73 11.26L0.25 11.26C0.45 12.94 1.83 13.78 3.86 13.78C5.67 13.78 7.17 13.03 7.17 11.44C7.17 10.00 6.20 9.41 4.84 9.07C3.42 8.72 3.08 8.44 3.08 8.02C3.08 7.70 3.33 7.48 3.68 7.48C4.13 7.48 4.38 7.77 4.49 8.29L6.97 8.29C6.78 6.93 5.70 5.91 3.84 5.91ZM15.60 6.10L13.08 6.10L13.08 10.33C13.08 11.33 12.60 12.07 11.80 12.07C11.00 12.07 10.67 11.65 10.58 10.93C10.54 10.56 10.53 10.15 10.53 9.91L10.53 6.10L8.01 6.10L8.01 10.47C8.01 11.07 8.02 11.51 8.08 11.89C8.25 12.91 9.18 13.78 10.72 13.78C11.41 13.78 11.94 13.62 12.40 13.34L13.08 12.32L13.08 13.58L15.60 13.58ZM22.09 5.91C21.34 5.91 20.61 6.06 20.19 6.37L19.63 7.20L19.63 6.10L17.11 6.10L17.11 16.32L19.63 16.32L19.63 12.61L20.12 13.41C20.50 13.64 21.22 13.78 21.84 13.78C23.76 13.78 25.38 12.33 25.38 9.67C25.38 7.46 24.12 5.91 22.09 5.91ZM21.15 12.07C20.40 12.07 19.63 11.56 19.63 10.07L19.63 9.74C19.63 8.18 20.30 7.62 21.22 7.62C22.11 7.62 22.81 8.40 22.81 9.80C22.81 11.33 22.13 12.07 21.15 12.07ZM30.86 13.58L33.32 13.58C33.21 12.75 33.18 12.25 33.18 11.69L33.18 9.59C33.18 9.13 33.17 8.69 33.14 8.32C33.03 6.96 32.21 5.91 29.85 5.91C27.96 5.91 26.40 6.90 26.39 8.65L28.77 8.64C28.81 7.99 29.15 7.62 29.74 7.62C30.28 7.62 30.59 7.95 30.63 8.33C30.66 8.57 30.66 8.72 30.66 8.88L30.66 8.99L30.18 8.99C27.65 8.99 26.14 9.97 26.14 11.56C26.14 13.01 27.30 13.78 28.53 13.78C29.22 13.78 29.85 13.61 30.38 13.27L30.69 12.49ZM29.57 12.07C29.06 12.07 28.71 11.82 28.71 11.37C28.71 10.63 29.53 10.33 30.66 10.42L30.66 10.91C30.66 11.69 30.07 12.07 29.57 12.07ZM44.60 6.10L42.08 6.10L42.08 10.33C42.08 11.33 41.61 12.07 40.81 12.07C40.01 12.07 39.68 11.65 39.59 10.93C39.55 10.56 39.54 10.15 39.54 9.91L39.54 6.10L37.02 6.10L37.02 10.47C37.02 11.07 37.03 11.51 37.09 11.89C37.25 12.91 38.19 13.78 39.73 13.78C40.42 13.78 40.95 13.62 41.41 13.34L42.08 12.32L42.08 13.58L44.60 13.58ZM51.10 5.91C50.34 5.91 49.62 6.06 49.20 6.37L48.64 7.20L48.64 6.10L46.12 6.10L46.12 16.32L48.64 16.32L48.64 12.61L49.13 13.41C49.50 13.64 50.23 13.78 50.85 13.78C52.77 13.78 54.39 12.33 54.39 9.67C54.39 7.46 53.13 5.91 51.10 5.91ZM50.16 12.07C49.41 12.07 48.64 11.56 48.64 10.07L48.64 9.74C48.64 8.18 49.31 7.62 50.23 7.62C51.11 7.62 51.81 8.40 51.81 9.80C51.81 11.33 51.14 12.07 50.16 12.07Z"></path></g><!----><!----></svg>